<?xml version="1.0" encoding="UTF-8"?>
<svg id="Layer_1" xmlns="http://www.w3.org/2000/svg" version="1.1" viewBox="0 0 170 170">
  <!-- Generator: Adobe Illustrator 29.8.1, SVG Export Plug-In . SVG Version: 2.1.1 Build 2)  -->
  <defs>
    <style>
      .st0 {
        fill: #7cc043;
      }

      .st1 {
        fill: #e98eaa;
      }
    </style>
  </defs>
  <g>
    <polygon class="st0" points="50.31 36.47 35.78 56.9 28.95 36.47 18.45 36.47 10 79.95 19.94 79.95 25.34 52.37 31.12 70.07 35.28 70.07 47.83 52.37 42.43 79.95 52.43 79.95 60.87 36.47 50.31 36.47"/>
    <polygon class="st0" points="66.59 36.47 58.14 79.95 68.08 79.95 76.53 36.47 66.59 36.47"/>
    <polygon class="st0" points="107.96 36.47 102.77 63.41 93.67 36.47 82.31 36.47 73.86 79.95 83.8 79.95 89.11 52.82 98.21 79.95 109.45 79.95 117.9 36.47 107.96 36.47"/>
    <path class="st0" d="M158.8,46.87c-1.3-3.29-3.52-5.85-6.65-7.67-3.13-1.82-6.95-2.73-11.46-2.73h-17.02l-8.45,43.48h17.02c4.51,0,8.69-.91,12.52-2.73,3.83-1.82,7.04-4.38,9.63-7.67,2.59-3.29,4.3-7.07,5.12-11.34.83-4.26.59-8.04-.71-11.34ZM149.58,58.21c-.46,2.4-1.4,4.51-2.83,6.34-1.43,1.82-3.23,3.23-5.4,4.22s-4.57,1.49-7.17,1.49h-7.12l4.68-24.1h7.1c2.61,0,4.81.5,6.62,1.49,1.8.99,3.05,2.4,3.76,4.22.7,1.82.83,3.93.37,6.34Z"/>
  </g>
  <g>
    <path class="st0" d="M43.92,108.16c-1.33-1.26-2.96-2.06-4.91-2.39l13.54-16.65h-11.12l-15.16,22.55c-1.04,1.33-1.89,2.83-2.58,4.5s-1.21,3.47-1.58,5.37h1.74c.25-1.28.75-2.43,1.49-3.45.75-1.01,1.66-1.81,2.73-2.39,1.08-.58,2.24-.87,3.48-.87,1.16,0,2.16.29,3.01.87.85.58,1.41,1.39,1.68,2.42.27,1.04.28,2.24.03,3.6l-2.11,10.87h10l2.55-12.92c.46-2.48.43-4.71-.06-6.68-.5-1.97-1.41-3.58-2.73-4.85Z"/>
    <polygon class="st0" points="18.45 89.12 10 132.6 19.94 132.6 28.39 89.12 18.45 89.12"/>
    <polygon class="st0" points="56.96 89.12 48.51 132.6 58.45 132.6 66.9 89.12 56.96 89.12"/>
    <path class="st0" d="M92.27,122.72c-1.76.75-3.59,1.12-5.5,1.12-2.32,0-4.36-.59-6.12-1.77-1.76-1.18-3-2.76-3.73-4.75-.73-1.99-.88-4.14-.47-6.46.46-2.32,1.45-4.47,2.98-6.46,1.53-1.99,3.39-3.57,5.56-4.75,2.17-1.18,4.42-1.77,6.74-1.77,1.86,0,3.54.38,5.03,1.15,1.49.77,2.71,1.81,3.67,3.14l8.88-6.03c-1.62-2.48-3.78-4.43-6.49-5.84-2.71-1.41-5.77-2.11-9.16-2.11-4.14,0-8.15,1.01-12.02,3.04-3.87,2.03-7.15,4.78-9.85,8.26-2.69,3.48-4.45,7.27-5.28,11.37-.79,4.1-.51,7.89.84,11.37,1.35,3.48,3.56,6.23,6.65,8.26,3.08,2.03,6.7,3.04,10.84,3.04,3.35,0,6.67-.7,9.94-2.11,3.27-1.41,6.21-3.35,8.82-5.84l-6.65-6.03c-1.37,1.37-2.93,2.42-4.69,3.17Z"/>
    <path class="st0" d="M138.34,108.16c-1.33-1.26-2.96-2.06-4.91-2.39l13.54-16.65h-11.12l-15.16,22.55c-1.04,1.33-1.89,2.83-2.58,4.5-.68,1.68-1.21,3.47-1.58,5.37h1.74c.25-1.28.75-2.43,1.49-3.45.75-1.01,1.66-1.81,2.73-2.39,1.08-.58,2.24-.87,3.48-.87,1.16,0,2.16.29,3.01.87.85.58,1.41,1.39,1.68,2.42.27,1.04.28,2.24.03,3.6l-2.11,10.87h10l2.55-12.92c.46-2.48.43-4.71-.06-6.68-.5-1.97-1.41-3.58-2.73-4.85Z"/>
    <polygon class="st0" points="112.87 89.12 104.42 132.6 114.36 132.6 122.81 89.12 112.87 89.12"/>
  </g>
  <path class="st1" d="M152.55,89.17c-3.09,0-5.59,2.5-5.59,5.59s2.5,5.59,5.59,5.59,5.59-2.5,5.59-5.59-2.5-5.59-5.59-5.59Z"/>
</svg>